PathFileType	4	(X/Y/Z)	Patient4_TMGait_0pt3_03_right_12.trc.trc
DataRate	CameraRate	NumFrames	NumMarkers	Units	OrigDataRate	OrigDataStartFrame	OrigNumFrames
53.231939163498	53.231939163498	4	33	mm	53.231939163498	36	       141
Frame#	Time	Sacral			L.Shoulder			Chest			R.Shoulder			Neck			R.ASIS			L.ASIS			R.Thigh.Superior			R.Thigh.Lateral			R.Thigh.Inferior			R.Patella			L.Thigh.Superior			L.Thigh.Lateral			L.Thigh.Inferior			L.Patella			L.Shank.Superior			L.Shank.Lateral			L.Shank.Inferior			R.Shank.Superior			R.Shank.Lateral			R.Shank.Inferior			R.Heel			R.Midfoot.Superior			R.Midfoot.Lateral			R.Toe			L.Heel			L.Midfoot.Lateral			L.Midfoot.Superior			L.Toe			L.Elbow			L.Wrist			R.Elbow			R.Wrist			
		X1	Y1	Z1	X2	Y2	Z2	X3	Y3	Z3	X4	Y4	Z4	X5	Y5	Z5	X6	Y6	Z6	X7	Y7	Z7	X8	Y8	Z8	X9	Y9	Z9	X10	Y10	Z10	X11	Y11	Z11	X12	Y12	Z12	X13	Y13	Z13	X14	Y14	Z14	X15	Y15	Z15	X16	Y16	Z16	X17	Y17	Z17	X18	Y18	Z18	X19	Y19	Z19	X20	Y20	Z20	X21	Y21	Z21	X22	Y22	Z22	X23	Y23	Z23	X24	Y24	Z24	X25	Y25	Z25	X26	Y26	Z26	X27	Y27	Z27	X28	Y28	Z28	X29	Y29	Z29	X30	Y30	Z30	X31	Y31	Z31	X32	Y32	Z32	X33	Y33	Z33	

36	23.407500000000	772.619417824353	994.808140099931	466.686657434760	963.109945036330	1432.780516762632	313.932546157426	1032.959772853669	1367.802636353447	491.787223458937	913.556627327137	1436.557131931671	645.101511509445	909.670969845332	1490.963696162950	468.661736234479	988.862580069215	941.455154115389	615.682919890265	1007.462199988980	959.000831485601	341.645249180910	1053.806415144315	749.111914026140	583.061953217170	983.913393602016	631.301564148558	640.662089000165	1070.127138485544	587.080992877771	563.894372375958	1081.382655077137	497.171225271852	572.550939417259	1018.931103640422	729.415397005520	363.252174736723	913.761307147407	625.698840516209	293.990494785768	982.680035557742	534.844087264976	355.777783059551	969.628240334972	458.250620704429	356.642803265930	916.073953193636	398.119456686875	348.264108540872	792.417868410842	320.422508430421	296.714212610482	806.882255499589	193.953025062451	358.197404262516	1052.478795440591	406.210917220055	580.646997492102	981.840845579362	303.514061980833	645.881830111324	1024.362636061463	207.206331935343	585.232959443457	891.071965550050	42.510072154886	562.370304675681	1062.322528898527	97.826006097908	594.713253922609	975.702318405072	37.013849719102	635.636988956271	1182.880767351855	48.883348362088	620.195014038127	641.644050238340	68.728717483720	396.894568303696	713.190173263238	50.466145091830	317.511482568442	805.343178451129	99.910701450346	341.090720054748	922.267241562580	37.554132374808	312.833364310866	1066.615506867056	1113.976538333303	165.805324807538	1317.352548692768	1040.191027525730	175.898254600282	807.740829208441	1103.524115135067	747.720246233341	903.635988682273	864.487035826180	790.985106403291	
37	23.426285714286	773.212557569964	995.033811574892	473.318662760371	961.242796852865	1433.449699180270	318.631765962893	1032.854299120300	1368.647749793523	495.878974018757	914.560494973874	1437.071795040970	650.191309803161	908.955579709777	1491.470764332886	473.736663810561	990.819567456100	942.093440807641	620.502079340459	1007.097274502403	959.630843934782	346.440279040896	1053.994598345910	748.555799350800	587.206660202878	982.976797876412	631.087475763468	644.298601717218	1068.421635622982	586.382791197986	567.020185261928	1078.741086197855	496.340527811085	574.869203129351	1021.306454063351	730.478615031414	367.032688325168	918.223347632309	625.778697371694	297.083034179149	989.476917654553	535.281907467545	357.704806200207	976.948890862672	457.509309635920	357.038997666286	921.266504457131	398.170832419887	348.947238860676	795.114280972681	324.284829144535	298.066045835936	807.091918327252	196.778415079115	357.699437345971	1049.301662005648	405.571653948151	582.502435934374	978.410910477850	302.899552008128	647.383763782810	1019.848026481126	206.730610606724	585.811397752021	885.622032202285	42.517823898618	562.444104055860	1056.858503751784	97.690045113139	594.809263079183	970.220465290193	36.996173946464	635.710071620101	1177.490949863317	48.520679368910	620.338072027628	638.716306251744	76.767271533515	396.362493458790	709.248730229687	55.009671217372	317.191305702165	803.100684838706	101.250420377339	340.045986002148	916.799392533820	37.008486726019	312.873452577057	1059.943305872650	1112.144907079541	171.418215753425	1307.479778264615	1027.336473346654	180.242779881548	813.563782485257	1103.532208981607	756.082125661780	920.782427609737	869.551743537589	799.660719870565	
38	23.445071428571	773.588566744407	995.180303693440	480.011436836191	959.197890063568	1433.907847719075	323.184633665906	1032.728616880479	1369.308516485637	499.760884126460	915.765665465619	1437.511595800312	655.171664676659	908.279331453396	1491.860943374390	478.693217159851	992.627104648222	942.569545752765	625.232661132256	1006.444144784493	960.140628379335	351.165678147547	1053.990844558662	747.925302618798	591.312150029468	981.864970189339	630.792913357627	647.932608993128	1066.552836887660	585.633640955754	570.159033740237	1075.944906507584	495.486250583066	577.239470608367	1024.167422858708	731.740406243139	370.832600108499	923.754768399299	625.811666061982	300.034105268458	997.596235635666	535.923674081097	359.594545423644	985.741651289697	456.932221634349	357.350068158060	927.897432640063	398.305843725051	349.540907479758	799.208528336345	328.595077779816	299.317591357529	808.334166101842	200.151546284449	357.147509588539	1045.979834523675	404.909774509051	584.404190088938	974.845268226328	302.239641768123	648.891666353960	1015.256386534507	206.248611628555	586.423378775709	880.125207276235	42.535664157673	562.506342266643	1051.353715688518	97.531577375400	594.908053377281	964.693128629833	36.972318272876	635.764948219446	1172.058414644218	48.109215474271	620.492915445165	636.620872791439	86.332410966347	395.820225287564	705.826311708803	60.711653705710	316.862188738304	801.489706305551	103.025771883401	338.992898291629	911.310280798458	36.295200735324	312.951961175254	1052.545228293012	1109.859959299270	177.235540113324	1295.952584457969	1013.140113769833	184.493505850350	819.728132631460	1103.712731881735	764.720567596695	937.885052822975	875.224607769564	808.075801034317	
39	23.463857142857	773.724593533721	995.226527772546	486.729739742085	956.975710443145	1434.124469907569	327.568128154912	1032.564293138660	1369.756378297076	503.408236324546	917.151411709395	1437.849222151873	660.008693963097	907.641297424634	1492.112148545095	483.500153158322	994.277008476799	942.868653498950	629.814880254156	1005.473638599652	960.514891278631	355.758117742853	1053.853780406034	747.245859857862	595.280458576870	980.711363199326	630.423438987833	651.508102920327	1064.637161524332	584.854745231662	573.229046853869	1073.129811122677	494.604030812418	579.599228482343	1027.465183407292	733.234124875302	374.619352894071	930.261577570757	625.865506425332	302.846534363982	1006.870231761511	536.848875627867	361.507054568599	995.841768260170	456.624064772622	357.700550114565	935.862218240608	398.600525986456	350.132329955201	804.664004746705	333.375948915771	300.509106421717	810.603734373692	204.122555848090	356.630420578721	1042.622871315898	404.215237483073	586.307383140405	971.235651249123	301.547738483838	650.391324330029	1010.636774237653	205.752838331211	587.055160847842	874.577993405827	42.564076732026	562.567477385082	1045.812691646324	97.354691800715	595.011246614223	959.120576597588	36.947561969965	635.814434765107	1166.584649383451	47.655125366400	620.653979610139	635.464688503449	97.430438287132	395.343527844719	703.016440202666	67.687946712416	316.576215748134	800.531896277932	105.360824125911	338.013602080064	905.838298611436	35.407504325307	313.046998768710	1044.424797668099	1107.117109265766	183.251119283370	1282.600154931930	997.706152791913	188.652775243012	826.235341031793	1104.010666747191	773.562837012121	954.880860702357	881.400485647758	816.183084411024	
